<svg width="122" height="32" viewBox="0 0 122 32" fill="none" xmlns="http://www.w3.org/2000/svg">
<path fill-rule="evenodd" clip-rule="evenodd" d="M5.38149 0.88916H24.8399C27.812 0.88916 30.2214 3.29853 30.2214 6.27064V25.729C30.2214 28.7011 27.812 31.1105 24.8399 31.1105H5.38149C2.40937 31.1105 0 28.7011 0 25.729V6.27064C0 3.29853 2.40937 0.88916 5.38149 0.88916ZM21.333 8.98423H14.2851C13.8469 8.98423 13.4918 9.33938 13.4918 9.77749V10.8893C13.4918 11.3274 13.8469 11.6826 14.2851 11.6826H21.333C21.7711 11.6826 22.1263 11.3274 22.1263 10.8893V9.77749C22.1263 9.33938 21.7711 8.98423 21.333 8.98423ZM14.2851 14.6513H20.074C20.5121 14.6513 20.8672 15.0064 20.8672 15.4445V16.5564C20.8672 16.9945 20.5121 17.3496 20.074 17.3496H14.2851C13.8469 17.3496 13.4918 16.9945 13.4918 16.5564V15.4445C13.4918 15.0064 13.8469 14.6513 14.2851 14.6513ZM22.1263 22.2222V21.1103C22.1263 20.6725 21.7709 20.3171 21.333 20.3171H12.8559C11.7162 20.3171 10.7934 19.3943 10.7934 18.2546V9.77749C10.7934 9.33961 10.438 8.98423 10.0002 8.98423H8.88833C8.45045 8.98423 8.09507 9.33961 8.09507 9.77749V19.9084C8.20169 21.5761 9.53437 22.9088 11.2021 23.0154H21.333C21.7709 23.0154 22.1263 22.66 22.1263 22.2222Z" fill="#316BFF"/>
<path d="M14.2851 8.98423H21.333C21.7711 8.98423 22.1263 9.33938 22.1263 9.77749V10.8893C22.1263 11.3274 21.7711 11.6826 21.333 11.6826H14.2851C13.8469 11.6826 13.4918 11.3274 13.4918 10.8893V9.77749C13.4918 9.33938 13.8469 8.98423 14.2851 8.98423Z" fill="white"/>
<path d="M14.2851 14.6513H20.074C20.5121 14.6513 20.8672 15.0064 20.8672 15.4445V16.5564C20.8672 16.9945 20.5121 17.3496 20.074 17.3496H14.2851C13.8469 17.3496 13.4918 16.9945 13.4918 16.5564V15.4445C13.4918 15.0064 13.8469 14.6513 14.2851 14.6513Z" fill="white"/>
<path d="M22.1263 21.1103V22.2222C22.1263 22.66 21.7709 23.0154 21.333 23.0154H11.2021C9.53437 22.9088 8.20169 21.5761 8.09507 19.9084V9.77749C8.09507 9.33961 8.45045 8.98423 8.88833 8.98423H10.0002C10.438 8.98423 10.7934 9.33961 10.7934 9.77749V18.2546C10.7934 19.3943 11.7162 20.3171 12.8559 20.3171H21.333C21.7709 20.3171 22.1263 20.6725 22.1263 21.1103Z" fill="white"/>
<path d="M94.4972 6.07906H93.0261C92.588 6.07906 92.2329 6.43421 92.2329 6.87232V8.34334C92.2329 8.78145 92.588 9.1366 93.0261 9.1366H94.4972C94.9353 9.1366 95.2904 8.78145 95.2904 8.34334V6.87232C95.2904 6.43421 94.9353 6.07906 94.4972 6.07906Z" fill="#213856"/>
<path d="M41.2458 6.68828V24.8863C41.2458 25.3242 40.8905 25.6796 40.4526 25.6796H39.1237C38.6858 25.6796 38.3304 25.3242 38.3304 24.8863V6.68828C38.3304 6.2504 38.6858 5.89502 39.1237 5.89502H40.4526C40.8905 5.89502 41.2458 6.2504 41.2458 6.68828Z" fill="#213856"/>
<path d="M46.9345 19.7929C47.1896 21.9163 48.9436 23.3023 51.491 23.3023C52.6713 23.3023 54.1068 22.9279 55.0435 22.2463C55.357 22.0179 55.7873 22.0445 56.0665 22.3149L56.8395 23.065C57.1783 23.3937 57.1606 23.9471 56.795 24.2441C55.3405 25.427 53.292 26.0197 51.4339 26.0197C46.8482 26.0197 43.9049 23.1043 43.9049 18.6329C43.9049 14.1614 46.8774 11.359 51.2359 11.359C55.5944 11.359 58.511 13.8594 58.3067 19.0327C58.2902 19.4579 57.9386 19.7942 57.5134 19.7942H46.9332L46.9345 19.7929ZM55.4535 17.3307C55.2834 15.1235 53.6702 13.9622 51.3209 13.9622C49.1975 13.9622 47.4434 15.1222 46.9903 17.3307H55.4535Z" fill="#213856"/>
<path d="M70.1992 24.8863V17.5515C70.1992 15.7124 68.7105 14.1805 66.8714 14.2173C64.847 14.2566 63.5752 15.9675 63.5752 18.0097V24.8863C63.5752 25.3242 63.2198 25.6796 62.7819 25.6796H61.4531C61.0152 25.6796 60.6598 25.3242 60.6598 24.8863V12.4911C60.6598 12.0533 61.0152 11.6979 61.4531 11.6979H62.6639C63.07 11.6979 63.4102 12.0038 63.4534 12.4074L63.5765 13.5662C64.3685 12.038 66.0108 11.472 67.4819 11.472C69.2651 11.472 71.0763 12.2081 71.8695 14.2744C73.0017 12.2081 74.757 11.5012 76.6532 11.5012C80.5028 11.5012 82.569 13.9355 82.569 17.9551V24.8889C82.569 25.3267 82.2137 25.6821 81.7758 25.6821H80.419C79.9811 25.6821 79.6257 25.3267 79.6257 24.8889V17.3967C79.6257 15.6845 78.2601 14.2503 76.5479 14.2477C74.4778 14.2439 73.1438 15.9434 73.1438 18.0122V24.8889C73.1438 25.3267 72.7885 25.6821 72.3506 25.6821H70.9938C70.5559 25.6821 70.2005 25.3267 70.2005 24.8889L70.1992 24.8863Z" fill="#213856"/>
<path d="M88.7946 6.68828V24.8863C88.7946 25.3242 88.4392 25.6796 88.0013 25.6796H86.6724C86.2346 25.6796 85.8792 25.3242 85.8792 24.8863V6.68828C85.8792 6.2504 86.2346 5.89502 86.6724 5.89502H88.0013C88.4392 5.89502 88.7946 6.2504 88.7946 6.68828Z" fill="#213856"/>
<path d="M92.304 12.4619V24.8863C92.304 25.3242 92.6593 25.6796 93.0972 25.6796H94.4261C94.864 25.6796 95.2193 25.3242 95.2193 24.8863V12.4619C95.2193 12.0241 94.864 11.6687 94.4261 11.6687H93.0972C92.6593 11.6687 92.304 12.0241 92.304 12.4619Z" fill="#213856"/>
<path d="M108.024 14.5727C107.76 14.8823 107.307 14.9318 106.972 14.6996C106.027 14.0447 105.008 13.8479 103.853 13.8479C102.069 13.82 100.88 14.414 100.88 15.5182C100.908 16.6783 102.125 17.1314 103.908 17.3015C106.484 17.5274 109.852 18.0935 109.824 21.6892C109.796 24.2936 107.503 26.1048 103.88 26.1048C101.813 26.1048 99.7441 25.6796 98.0002 24.0321C97.7108 23.758 97.6753 23.3087 97.9126 22.9876L98.5079 22.1816C98.7744 21.8212 99.2923 21.7475 99.6388 22.0318C100.897 23.065 102.531 23.5041 103.938 23.5283C105.325 23.5283 106.881 23.0193 106.91 21.7171C106.938 20.472 105.75 19.9909 103.684 19.7917C101.051 19.5366 98.0231 18.6875 97.9951 15.6033C97.9951 12.5178 101.194 11.3577 103.798 11.3577C105.642 11.3577 107.132 11.7106 108.5 12.6853C108.88 12.9557 108.947 13.4938 108.645 13.8479L108.027 14.5727H108.024Z" fill="#213856"/>
<path d="M116.673 8.5883V11.7537H119.955C120.393 11.7537 120.748 12.1091 120.748 12.547V13.4799C120.748 13.9177 120.393 14.2731 119.955 14.2731H116.644V20.9251C116.644 22.3974 117.295 23.2173 118.653 23.2173C118.993 23.2173 119.362 23.1462 119.727 23.0282C120.133 22.8962 120.569 23.1272 120.707 23.5321L121.039 24.5081C121.18 24.9231 120.959 25.3775 120.543 25.5158C119.865 25.7418 119.211 25.8497 118.482 25.8497C115.453 25.9347 113.727 24.2086 113.727 20.9251V14.2731H111.831C111.393 14.2731 111.038 13.9177 111.038 13.4799V12.547C111.038 12.1091 111.393 11.7537 111.831 11.7537H113.727V8.73172C113.727 8.32557 114.033 7.98542 114.437 7.94227L115.793 7.79885C116.262 7.74935 116.67 8.11615 116.67 8.5883H116.673Z" fill="#213856"/>
</svg>
