<?xml version="1.0" encoding="utf-8"?>
<!-- Generator: Adobe Illustrator 22.1.0, SVG Export Plug-In . SVG Version: 6.00 Build 0)  -->
<svg version="1.1" id="Layer_1" xmlns="http://www.w3.org/2000/svg" xmlns:xlink="http://www.w3.org/1999/xlink" x="0px" y="0px"
	 viewBox="0 0 512 108" style="enable-background:new 0 0 512 108;" xml:space="preserve">
<style type="text/css">
	.st0{fill:#414A5F;}
	.st1{fill:#5DA3D9;}
</style>
<g>
	<g>
		<path className="st0" d="M179.6,85.2V60h-26.5v25.2h-11.8V24.5h11.8v24.4h26.5V24.5h11.9v60.7H179.6z"/>
		<path className="st0" d="M242,73.1c-2.1,7.3-8.8,13.4-19.2,13.4c-11.6,0-21.8-8.3-21.8-22.5c0-13.4,9.9-22.2,20.7-22.2
			c13,0,20.8,8.3,20.8,21.8c0,1.6-0.2,3.3-0.2,3.5h-30.2c0.3,5.6,5,9.6,10.6,9.6c5.3,0,8.2-2.7,9.6-6.4L242,73.1z M231.4,59.3
			c-0.2-4.2-2.9-8.3-9.4-8.3c-5.9,0-9.2,4.5-9.4,8.3H231.4z"/>
		<path className="st0" d="M251.6,85.2v-62H263v62H251.6z"/>
		<path className="st0" d="M275.2,101.5V43.1h11.1v5.1c1.9-3.3,6.6-6.1,12.9-6.1c12.3,0,19.4,9.4,19.4,21.9c0,12.8-8,22.2-19.9,22.2
			c-5.8,0-10.1-2.3-12.2-5.1v20.4H275.2z M296.9,52.3c-5.8,0-10.5,4.4-10.5,11.8c0,7.5,4.7,11.9,10.5,11.9c5.8,0,10.4-4.4,10.4-11.9
			C307.4,56.7,302.8,52.3,296.9,52.3z"/>
		<path className="st0" d="M327.6,43.1H339v45.8c0,8.1-5.1,13.9-13.2,13.9c-3.3,0-5.8-0.7-6.4-0.9v-9.5c0.8,0.2,1.9,0.4,3.5,0.4
			c3.4,0,4.7-1.9,4.7-5V43.1z M333.3,22.1c3.9,0,7,3.2,7,7.1c0,3.9-3.1,6.9-7,6.9c-3.9,0-7-3.1-7-6.9
			C326.2,25.2,329.4,22.1,333.3,22.1z"/>
		<path className="st0" d="M378.4,80.7c-2.3,3.9-7.2,5.7-11.7,5.7c-10.2,0-16-7.5-16-16.6V43.1h11.4v24.3c0,4.7,2.4,8.5,7.7,8.5
			c5.1,0,8-3.4,8-8.3V43.1h11.4v34.5c0,3.3,0.3,6.2,0.4,7.6h-10.9C378.6,84.4,378.4,82.4,378.4,80.7z"/>
		<path className="st0" d="M407,22.2c3.9,0,7,3.2,7,7.1c0,3.8-3.1,6.9-7,6.9c-3.9,0-7-3.2-7-6.9C400,25.3,403.2,22.2,407,22.2z
			 M401.4,85.2V43.1h11.4v42.1H401.4z"/>
		<path className="st0" d="M433.2,64.1c0,7.6,5,11.9,10.8,11.9c5.8,0,8.7-3.9,9.7-7.1l10,3.3c-1.9,7-8.5,14.2-19.7,14.2
			c-12.4,0-22.2-9.4-22.2-22.4c0-13,9.6-22.4,21.8-22.4c11.5,0,18,7.1,19.8,14.2l-10.2,3.4c-1-3.5-3.7-7.1-9.3-7.1
			C438,52.3,433.2,56.5,433.2,64.1z"/>
		<path className="st0" d="M509.4,73.1c-2.1,7.3-8.8,13.4-19.2,13.4c-11.6,0-21.8-8.3-21.8-22.5c0-13.4,9.9-22.2,20.7-22.2
			c13,0,20.8,8.3,20.8,21.8c0,1.6-0.2,3.3-0.2,3.5h-30.2c0.3,5.6,5,9.6,10.6,9.6c5.3,0,8.2-2.7,9.6-6.4L509.4,73.1z M498.8,59.3
			c-0.2-4.2-2.9-8.3-9.4-8.3c-5.9,0-9.2,4.5-9.4,8.3H498.8z"/>
	</g>
	<g>
		<path className="st1" d="M53.5,38.2c0,0,10.9,14.3,10.9,20.5c0,6.1-5,11.1-11.1,11.1s-11.1-5-11.1-11.1C42.2,52.5,53.5,38.2,53.5,38.2
			z"/>
		<path className="st1" d="M53.3,2.7C25,2.7,2,25.7,2,54s23,51.3,51.3,51.3s51.3-23,51.3-51.3S81.6,2.7,53.3,2.7z M70.6,12.1
			c11.1,4.6,20,13.5,24.6,24.6l-10.4,4.3c-3.5-8.4-10.1-15.1-18.5-18.5L70.6,12.1z M36,12.1l4.3,10.4c-8.4,3.5-15.1,10.1-18.5,18.5
			l-10.4-4.3C16,25.5,24.8,16.7,36,12.1z M36,95.9c-11.1-4.6-20-13.5-24.6-24.6l10.4-4.3c3.5,8.4,10.1,15.1,18.5,18.5L36,95.9z
			 M25.2,54c0-15.5,12.6-28.1,28.1-28.1S81.4,38.5,81.4,54S68.8,82.1,53.3,82.1S25.2,69.5,25.2,54z M70.6,95.9l-4.3-10.4
			c8.4-3.5,15.1-10.1,18.5-18.5l10.4,4.3C90.6,82.5,81.8,91.3,70.6,95.9z"/>
	</g>
</g>
</svg>
