<svg width="218" height="40" viewBox="0 0 218 40" fill="none" xmlns="http://www.w3.org/2000/svg">
<g clip-path="url(#clip0)">
<path d="M52.2696 14.2695H56.4V18.3144C56.9612 16.9661 57.7693 15.865 58.8019 15.056C59.8345 14.247 61.1589 13.865 62.7302 13.9324V18.2695H62.4833C61.5854 18.2695 60.7548 18.4268 60.0141 18.7189C59.2733 19.011 58.6223 19.4605 58.0836 20.0448C57.5448 20.629 57.1183 21.3706 56.8265 22.2695C56.5347 23.1684 56.3775 24.2021 56.3775 25.3706V32.1796H52.2472V14.2695H52.2696Z" fill="black"/>
<path d="M73.0786 32.5843C71.7317 32.5843 70.4746 32.3371 69.3074 31.8652C68.1401 31.3933 67.13 30.7191 66.2994 29.8877C65.4464 29.0562 64.7954 28.0674 64.324 26.9439C63.8526 25.8203 63.6057 24.6068 63.6057 23.3483V23.2809C63.6057 22 63.8526 20.7865 64.324 19.663C64.8178 18.5394 65.4688 17.5506 66.3218 16.6967C67.1749 15.8427 68.1625 15.1686 69.3298 14.6742C70.4971 14.1798 71.7542 13.9326 73.1459 13.9326C74.5377 13.9326 75.7947 14.1798 76.962 14.6517C78.1293 15.1461 79.1394 15.7978 79.97 16.6517C80.823 17.5057 81.474 18.4944 81.9454 19.5955C82.4168 20.7191 82.6637 21.9101 82.6637 23.2135V23.2809C82.6637 24.5394 82.4168 25.7528 81.9454 26.8764C81.4515 28 80.8005 28.9888 79.9475 29.8427C79.0945 30.6967 78.0844 31.3708 76.9171 31.8652C75.7274 32.3371 74.4479 32.5843 73.0786 32.5843ZM73.1459 29.0113C73.9765 29.0113 74.7172 28.854 75.3907 28.5618C76.0641 28.2472 76.6253 27.8427 77.0967 27.3259C77.5681 26.809 77.9273 26.2023 78.1742 25.5056C78.4211 24.809 78.5558 24.0899 78.5558 23.3259V23.2585C78.5558 22.4719 78.4211 21.7304 78.1517 21.0113C77.8824 20.2922 77.5007 19.7079 77.0293 19.1686C76.5355 18.6517 75.9743 18.2248 75.3009 17.9326C74.6499 17.618 73.9091 17.4832 73.101 17.4832C72.2929 17.4832 71.5521 17.6405 70.9012 17.9326C70.2277 18.2472 69.6665 18.6517 69.1951 19.1461C68.7237 19.663 68.3646 20.2697 68.1177 20.9663C67.8707 21.663 67.7585 22.4045 67.7585 23.1686V23.236C67.7585 24.0225 67.8932 24.7641 68.1625 25.4607C68.4319 26.1573 68.8135 26.7641 69.2849 27.3034C69.7788 27.8427 70.34 28.2472 71.0134 28.5618C71.6868 28.8764 72.3602 29.0113 73.1459 29.0113Z" fill="black"/>
<path d="M91.2611 32.5169C89.9816 32.5169 88.6796 32.2922 87.3552 31.8427C86.0308 31.3933 84.8187 30.7191 83.6738 29.8202L85.4921 27.0337C86.4573 27.7528 87.445 28.3146 88.4552 28.6742C89.4653 29.0562 90.4306 29.236 91.3509 29.236C92.2264 29.236 92.9222 29.0562 93.3936 28.7191C93.8875 28.3596 94.112 27.9101 94.112 27.3034V27.236C94.112 26.8989 93.9997 26.6068 93.7977 26.3596C93.5732 26.1124 93.2814 25.8877 92.9222 25.7079C92.5406 25.5281 92.1141 25.3483 91.6427 25.191C91.1489 25.0337 90.655 24.8764 90.1387 24.7191C89.4878 24.5393 88.8143 24.3146 88.1634 24.0674C87.4899 23.8202 86.9063 23.5056 86.3675 23.1011C85.8288 22.6967 85.4023 22.2247 85.0656 21.6405C84.7289 21.0562 84.5493 20.3371 84.5493 19.4832V19.4158C84.5493 18.5843 84.7064 17.8202 85.0431 17.1461C85.3798 16.4719 85.8288 15.8877 86.39 15.4158C86.9512 14.9438 87.6471 14.5843 88.4327 14.3371C89.2184 14.0899 90.0489 13.9551 90.9244 13.9551C92.0468 13.9551 93.1916 14.1349 94.3364 14.4944C95.4813 14.854 96.5363 15.3708 97.4791 16L95.8629 18.9214C95.0099 18.4045 94.1344 17.9775 93.259 17.6854C92.3835 17.3708 91.5754 17.236 90.8122 17.236C90.0265 17.236 89.398 17.4158 88.9715 17.7528C88.5225 18.0899 88.3205 18.5169 88.3205 19.0337V19.1011C88.3205 19.4158 88.4327 19.6854 88.6572 19.9326C88.8817 20.1798 89.1735 20.382 89.5551 20.5843C89.9367 20.7865 90.3632 20.9663 90.8346 21.1236C91.3285 21.3034 91.8223 21.4607 92.3386 21.618C92.9896 21.8202 93.6406 22.0674 94.314 22.3371C94.965 22.6068 95.5711 22.9438 96.0874 23.3259C96.6261 23.7304 97.0526 24.2023 97.3893 24.7641C97.726 25.3259 97.9056 26.0225 97.9056 26.8315V26.8989C97.9056 27.8427 97.726 28.6742 97.3893 29.3708C97.0526 30.0674 96.5812 30.6517 95.9751 31.1236C95.369 31.5955 94.6732 31.9326 93.865 32.1798C93.0569 32.382 92.1815 32.5169 91.2611 32.5169Z" fill="black"/>
<path d="M108.568 32.5843C107.289 32.5843 106.077 32.3596 104.954 31.9101C103.832 31.4607 102.867 30.8315 102.036 30.0225C101.205 29.2135 100.554 28.2248 100.083 27.0787C99.6116 25.9326 99.3647 24.6742 99.3647 23.3034V23.236C99.3647 21.9551 99.5892 20.7416 100.016 19.618C100.442 18.4944 101.048 17.5057 101.834 16.6517C102.62 15.7978 103.54 15.1461 104.595 14.6517C105.65 14.1573 106.84 13.9326 108.119 13.9326C109.533 13.9326 110.791 14.2023 111.868 14.7191C112.946 15.236 113.843 15.9326 114.539 16.8315C115.258 17.7079 115.796 18.7416 116.156 19.9101C116.515 21.0787 116.694 22.2922 116.694 23.5955C116.694 23.7753 116.694 23.9551 116.672 24.1573C116.649 24.3596 116.649 24.5394 116.627 24.7416H103.495C103.72 26.2023 104.303 27.3259 105.246 28.1124C106.189 28.8989 107.311 29.2809 108.658 29.2809C109.668 29.2809 110.566 29.1012 111.307 28.7416C112.048 28.3821 112.788 27.8427 113.507 27.1461L115.886 29.2135C115.033 30.2248 114.001 31.0337 112.811 31.663C111.644 32.2697 110.207 32.5843 108.568 32.5843ZM112.631 21.9551C112.564 21.3034 112.407 20.6742 112.182 20.1124C111.958 19.5506 111.644 19.0337 111.262 18.6292C110.88 18.2023 110.431 17.8877 109.893 17.618C109.354 17.3708 108.748 17.236 108.074 17.236C106.817 17.236 105.762 17.663 104.932 18.5394C104.101 19.4158 103.607 20.5394 103.428 21.9551H112.631Z" fill="black"/>
<path d="M121.161 14.2695H125.292V18.3144C125.853 16.9661 126.661 15.865 127.694 15.056C128.726 14.247 130.051 13.865 131.622 13.9324V18.2695H131.375C130.477 18.2695 129.647 18.4268 128.906 18.7189C128.165 19.011 127.514 19.4605 126.975 20.0448C126.437 20.629 126.01 21.3706 125.718 22.2695C125.426 23.1684 125.269 24.2021 125.269 25.3706V32.1796H121.139V14.2695H121.161Z" fill="black"/>
<path d="M141.97 32.5843C140.623 32.5843 139.366 32.3371 138.199 31.8652C137.032 31.3933 136.022 30.7191 135.191 29.8877C134.338 29.0562 133.687 28.0674 133.216 26.9439C132.744 25.8203 132.497 24.6068 132.497 23.3483V23.2809C132.497 22 132.744 20.7865 133.216 19.663C133.71 18.5394 134.361 17.5506 135.214 16.6967C136.067 15.8427 137.054 15.1686 138.221 14.6742C139.389 14.1798 140.646 13.9326 142.038 13.9326C143.429 13.9326 144.686 14.1798 145.854 14.6517C147.021 15.1461 148.031 15.7978 148.862 16.6517C149.715 17.5057 150.366 18.4944 150.837 19.5955C151.308 20.7191 151.555 21.9101 151.555 23.2135V23.2809C151.555 24.5394 151.308 25.7528 150.837 26.8764C150.343 28 149.692 28.9888 148.839 29.8427C147.986 30.6967 146.976 31.3708 145.809 31.8652C144.619 32.3371 143.34 32.5843 141.97 32.5843ZM142.038 29.0113C142.868 29.0113 143.609 28.854 144.282 28.5618C144.956 28.2472 145.517 27.8427 145.988 27.3259C146.46 26.809 146.819 26.2023 147.066 25.5056C147.313 24.809 147.447 24.0899 147.447 23.3259V23.2585C147.447 22.4719 147.313 21.7304 147.043 21.0113C146.774 20.3146 146.392 19.7079 145.921 19.1686C145.427 18.6517 144.866 18.2248 144.193 17.9326C143.542 17.618 142.801 17.4832 141.993 17.4832C141.185 17.4832 140.444 17.6405 139.793 17.9326C139.119 18.2472 138.558 18.6517 138.087 19.1461C137.615 19.663 137.256 20.2697 137.009 20.9663C136.762 21.663 136.65 22.4045 136.65 23.1686V23.236C136.65 24.0225 136.785 24.7641 137.054 25.4607C137.324 26.1573 137.705 26.7641 138.177 27.3034C138.67 27.8427 139.232 28.2472 139.905 28.5618C140.534 28.8764 141.252 29.0113 142.038 29.0113Z" fill="black"/>
<path d="M162.33 32.5843C161.006 32.5843 159.771 32.3371 158.626 31.8652C157.504 31.3708 156.516 30.7191 155.686 29.8877C154.855 29.0562 154.204 28.0675 153.733 26.9439C153.261 25.8203 153.037 24.6068 153.037 23.3484V23.2809C153.037 22.0225 153.261 20.809 153.733 19.663C154.204 18.5169 154.855 17.5281 155.686 16.6742C156.516 15.8203 157.504 15.1461 158.649 14.6517C159.794 14.1573 161.028 13.9102 162.353 13.9102C164.036 13.9102 165.45 14.2023 166.573 14.7641C167.695 15.3259 168.66 16.0675 169.513 17.0113L166.977 19.7529C166.348 19.1012 165.675 18.5618 164.957 18.1349C164.238 17.7079 163.363 17.5057 162.33 17.5057C161.589 17.5057 160.894 17.663 160.265 17.9551C159.637 18.2697 159.098 18.6742 158.649 19.1686C158.2 19.6854 157.841 20.2922 157.571 20.9888C157.302 21.6854 157.19 22.427 157.19 23.1911V23.2585C157.19 24.045 157.324 24.7866 157.571 25.5057C157.841 26.2023 158.2 26.809 158.671 27.3259C159.143 27.8427 159.704 28.2697 160.355 28.5618C161.006 28.854 161.724 29.0113 162.532 29.0113C163.498 29.0113 164.351 28.809 165.091 28.3821C165.832 27.9551 166.528 27.4382 167.179 26.7641L169.648 29.2135C168.773 30.2023 167.763 31.0113 166.64 31.6405C165.495 32.2697 164.059 32.5843 162.33 32.5843Z" fill="black"/>
<path d="M171.668 7.41553H175.799V22.202L183.206 14.2695H188.19L181.074 21.5504L188.414 32.1571H183.678L178.29 24.4268L175.776 27.0335V32.1571H171.646V7.41553H171.668Z" fill="black"/>
<path d="M197.887 32.5843C196.608 32.5843 195.396 32.3596 194.273 31.9101C193.151 31.4607 192.186 30.8315 191.355 30.0225C190.524 29.2135 189.873 28.2248 189.402 27.0787C188.931 25.9326 188.684 24.6742 188.684 23.3034V23.236C188.684 21.9551 188.908 20.7416 189.335 19.618C189.761 18.4944 190.367 17.5057 191.153 16.6517C191.939 15.7978 192.859 15.1461 193.914 14.6517C194.969 14.1573 196.159 13.9326 197.438 13.9326C198.852 13.9326 200.11 14.2023 201.187 14.7191C202.265 15.236 203.162 15.9326 203.858 16.8315C204.577 17.7079 205.115 18.7416 205.475 19.9101C205.834 21.0787 206.013 22.2922 206.013 23.5955C206.013 23.7753 206.013 23.9551 205.991 24.1573C205.968 24.3596 205.968 24.5394 205.946 24.7416H192.792C193.016 26.2023 193.6 27.3259 194.543 28.1124C195.485 28.8989 196.608 29.2809 197.955 29.2809C198.965 29.2809 199.84 29.1012 200.603 28.7416C201.344 28.3821 202.085 27.8427 202.803 27.1461L205.205 29.2809C204.352 30.2922 203.32 31.1012 202.13 31.7304C200.963 32.2697 199.548 32.5843 197.887 32.5843ZM201.95 21.9551C201.883 21.3034 201.726 20.6742 201.501 20.1124C201.277 19.5281 200.963 19.0337 200.581 18.6292C200.199 18.2023 199.75 17.8877 199.212 17.618C198.673 17.3708 198.067 17.236 197.393 17.236C196.136 17.236 195.081 17.663 194.251 18.5394C193.42 19.4158 192.926 20.5394 192.747 21.9551H201.95Z" fill="black"/>
<path d="M214.476 32.4717C213.735 32.4717 213.039 32.3818 212.411 32.2021C211.782 32.0223 211.221 31.7302 210.75 31.3257C210.278 30.9212 209.919 30.3818 209.672 29.7077C209.425 29.0335 209.291 28.2021 209.291 27.2133V17.7976H207.023V14.2695H209.291V9.34814H213.421V14.2695H218.247V17.7976H213.443V26.5841C213.443 27.3706 213.645 27.9549 214.027 28.292C214.409 28.6515 214.947 28.8088 215.643 28.8088C216.519 28.8088 217.372 28.6066 218.18 28.2021V31.5504C217.664 31.8425 217.102 32.0672 216.519 32.2245C215.935 32.4043 215.262 32.4717 214.476 32.4717Z" fill="black"/>
<path d="M24.7865 28.6067L30.4045 22.9888C30.5169 22.8764 30.6067 22.809 30.7191 22.6966C31.0112 22.4045 31.2809 22.0899 31.5955 21.7978C35.7528 17.6404 37.8202 12.0674 38.809 8.13483C39.8876 3.88764 39.9775 0.674157 39.9775 0.539326L40 0L39.4831 0.0224719C39.3483 0.0224719 36.1348 0.11236 31.8876 1.19101C27.9551 2.17978 22.4045 4.24719 18.2247 8.40449C17.8876 8.74157 17.573 9.05618 17.2584 9.39326C17.1685 9.46067 17.1011 9.52809 17.0337 9.59551L16.4045 10.2247L14.3371 12.2921L11.4382 15.191L0 17.573L9.55056 20.5169L7.01124 23.0562L11.0112 24.2697C11.3258 25.4157 11.9101 26.4045 12.764 27.2584C13.618 28.1124 14.6517 28.6966 15.7978 29.0112L17.0562 33.0562L19.5056 30.6067L22.427 40.0225L24.7865 28.6067ZM11.3483 19.4157L11.0787 19.3258L10.809 19.236L9.23596 18.764L12.9213 15.0787L13.6404 14.3596L14.5169 13.4831L14.6517 13.3483L14.8315 13.8876L14.8539 13.9326L14.8989 14.0899L16.0899 17.8427L16.2472 18.3146L16.4045 18.7865L17.1685 21.191L16.6966 21.0562L16.1573 20.8989L15.5955 20.6742L14.0899 20.2247L13.5281 20.0449L13.1236 19.9101L12.9663 19.8652L12.3371 19.6854L12.0225 19.5955L11.5506 19.4607L11.3483 19.4157ZM11.3034 23.3483L10.809 23.191L8.85393 22.6067L10.7191 20.7416L10.8539 20.6067L11.1236 20.3371L11.3708 20.4045L11.8427 20.5393L11.9551 20.5618L13.3258 20.9663L14.3371 24.2022L11.8427 23.4382L11.3034 23.3483ZM13.4382 26.5618C12.8764 26 12.427 25.3483 12.1348 24.6067L14.6517 25.3708L15.4382 27.8876C14.6966 27.573 14.0225 27.1461 13.4382 26.5618ZM19.5955 29.1461L19.3034 29.4382L17.5281 31.2135L16.8989 29.2135L16.7416 28.7191L16.5843 28.2022L15.7978 25.7079L15.618 25.1461L15.4382 24.5843L14.427 21.3483L15.9101 21.7978L16.4494 21.9551L16.9888 22.1124L17.5056 22.2697L19.3708 28.0674L19.3933 28.1798L19.5506 28.6517L19.6854 29.0337L19.5955 29.1461ZM29.7303 22.2921L26.6067 25.4157L25.618 26.4045L24.9888 27.0337L21.2809 30.7416L20.809 29.2809L20.6742 28.8764L20.6292 28.764L20.5169 28.427L20.4494 28.2472L20.3596 27.9551L20.2697 27.6404L18.6517 22.6292L18.4719 22.0674L17.3933 18.6966L17.3483 18.5618L17.191 18.0899L17.0337 17.618L15.5281 12.8989L15.4157 12.5618L15.8427 12.1348L16.2472 11.7303L16.6517 11.3258L17.5281 10.4494C17.8652 10.1124 18.1798 9.79775 18.4719 9.52809C18.5843 9.41573 18.6742 9.32584 18.7865 9.21348C18.9888 9.01124 19.1685 8.83146 19.3483 8.65168C19.3483 8.65168 19.3483 8.65168 19.3258 8.65168C19.4382 8.53933 19.573 8.42697 19.6854 8.31461C21.3483 6.74157 22.0449 6.31461 24.0449 5.21348C24.1573 5.14607 24.2921 5.07865 24.427 5.03371C27.1236 3.57303 29.8876 2.67416 32.1124 2.11236C32.764 1.95506 33.3708 1.82022 33.9551 1.68539C34.809 2.22472 35.618 2.8764 36.3596 3.61798C37.1011 4.35955 37.7528 5.16854 38.2921 6.02247C38.1798 6.60674 38.0449 7.21348 37.8876 7.8427C36.9663 11.5056 35.0787 16.6292 31.3933 20.5843C31.3933 20.6067 31.3708 20.6067 31.3708 20.6067L31.3483 20.6292L31.0787 20.8989L30.809 21.1685L30.427 21.5506L29.9775 22.0225C29.8876 22.1348 29.7978 22.2022 29.7303 22.2921Z" fill="black"/>
<path d="M31.2135 8.78666C29.7753 7.34846 27.4382 7.34846 26 8.78666C25.4607 9.32599 25.1011 10.0226 24.9663 10.7867C24.9438 10.9889 24.9214 11.1687 24.9214 11.3709C24.9214 11.5956 24.9438 11.8204 24.9663 12.0451C25.1011 12.7867 25.4607 13.4608 25.9775 14.0001C26.5169 14.5395 27.191 14.899 27.9326 15.0114C28.1573 15.0563 28.382 15.0788 28.6068 15.0563C28.809 15.0563 28.9888 15.0339 29.191 15.0114C29.9551 14.8765 30.6292 14.5395 31.191 13.9777C31.8876 13.281 32.2697 12.3597 32.2697 11.3709C32.2921 10.4046 31.9101 9.48329 31.2135 8.78666ZM28.7191 14.2024C28.4944 14.2024 28.2921 14.2024 28.0674 14.1574C27.7303 14.09 27.4157 13.9777 27.1236 13.7979C26.7416 13.5732 26.427 13.2361 26.1798 12.8541C26 12.5619 25.8876 12.2473 25.8202 11.9103C25.7753 11.708 25.7753 11.4833 25.7753 11.2586C25.7978 10.5619 26.0899 9.88778 26.5843 9.3934C27.6854 8.29228 29.4607 8.29228 30.5618 9.3934C31.6629 10.4945 31.6629 12.2698 30.5618 13.3709C30.0899 13.8653 29.4382 14.1574 28.7191 14.2024Z" fill="black"/>
</g>
<defs>
<clipPath id="clip0">
<rect width="218" height="40" fill="black"/>
</clipPath>
</defs>
</svg>
