<svg width="676" height="151" viewBox="0 0 676 151" fill="none" xmlns="http://www.w3.org/2000/svg">
<g clip-path="url(#clip0_1788_22)">
<path d="M41.8799 32.5601L7.91992 124.65L104.65 108.01L41.8799 32.5601Z" fill="#443702"/>
<path d="M25.47 108.1L65.33 0L139.02 88.5699L25.47 108.1ZM68.64 19.25L40.46 95.67L120.72 81.86L68.64 19.25Z" fill="#443702"/>
<path d="M48.65 150.59L150.18 102.21L0 135L48.65 150.59Z" fill="#443702"/>
<path d="M232.89 104.49V130.49H191.89V26.71H249.13C289.65 26.71 307.36 41.6199 307.36 65.3099C307.36 91.3099 289.66 104.49 249.13 104.49H232.89ZM264.71 65.4899C264.71 60.4899 261.26 57.4899 249.12 57.4899H232.89V73.8499H249.12C261.59 73.8499 264.71 70.64 264.71 65.52V65.4899Z" fill="#443702"/>
<path d="M373.12 25.25C411.5 25.25 437.74 45.86 437.74 78.61C437.74 113.84 412.33 131.97 373.12 131.97C336.87 131.97 308.17 113.84 308.17 78.61C308.17 45.42 336.87 25.25 373.12 25.25ZM373.12 98.78C387.39 98.78 395.92 91.33 395.92 78.61C395.92 66.61 387.21 58.42 373.12 58.42C359.34 58.42 350.12 66.42 350.12 78.61C350.16 91.19 359.34 98.78 373.12 98.78Z" fill="#443702"/>
<path d="M553.7 60.48H512.53C512.04 55.8 505.32 53.9 495.97 53.9C484.83 53.9 480.71 55.37 480.71 59.02C480.71 62.24 485.8 62.38 497.11 63.11C544.68 66.04 555.17 76.86 555.17 98.64C555.17 121.01 534.67 131.97 496.95 131.97C459.88 131.97 439.86 119.09 438.56 96.59H479.56C479.89 100.98 484.65 103.32 496.95 103.32C510.89 103.32 513.35 102.15 513.35 98.2C513.35 95.13 506.79 94.84 497.11 94.26C453.98 91.33 439.87 81.1 439.87 59.61C439.87 39.28 461.19 25.25 495.97 25.25C534.18 25.25 552.72 38.55 553.7 60.48Z" fill="#443702"/>
<path d="M675.4 26.71V130.51H634.4V96.4499H601.26V130.51H560.26V26.71H601.26V62.8199H634.39V26.71H675.4Z" fill="#443702"/>
</g>
<defs>
<clipPath id="clip0_1788_22">
<rect width="675.4" height="150.59" fill="white"/>
</clipPath>
</defs>
</svg>
