<svg id="logosandtypes_com" xmlns="http://www.w3.org/2000/svg" viewBox="0 0 150 150"><path d="M0 0h150v150H0V0z" fill="none"/><path d="M132.2 47.7c0-17.1-13.9-31-31-31H48.4c-17.1 0-31 13.9-31 31v52.8c0 17.1 13.9 31 31 31h52.8c17.1 0 31-13.9 31-31V47.7zM70.3 96.5c0 7-5.7 12.6-12.6 12.6-7 0-12.6-5.7-12.6-12.6V73l25.2-14.4v37.9zM39.8 71.3c-3.8-2.2-6.3-5.9-6.3-10.6 0-4.5 2.4-8.7 6.3-11L51.4 43c1.9-1.1 4.1-1.7 6.2-1.7 7 0 12.6 5.9 12.6 12.9L39.8 71.3zm71.1 25.2c0 7-5.7 12.6-12.6 12.6s-12.6-5.7-12.6-12.6V73l25.2-14.4v37.9zM80.7 71.3c-3.8-2.2-6.3-5.9-6.3-10.6 0-4.5 2.4-8.7 6.3-11L92.3 43c1.9-1.1 4.1-1.7 6.2-1.7 7 0 12.6 5.9 12.6 12.9L80.7 71.3z" fill="#5a006d"/></svg>