<?xml version="1.0" encoding="UTF-8"?>
<svg id="logosandtypes_com" data-name="logosandtypes com" xmlns="http://www.w3.org/2000/svg" viewBox="0 0 150 150">
  <defs>
    <style>
      .cls-1 {
        fill: #ffb548;
      }

      .cls-2 {
        fill: none;
      }

      .cls-3 {
        fill: #143029;
      }
    </style>
  </defs>
  <path class="cls-2" d="M0,0H150V150H0V0Z"/>
  <path class="cls-3" d="M122.77,36.79h-3.65c-6.61,0-12.74,2.13-17.73,5.72,3.89-10.76,1.53-23.3-7.08-31.92l-2.57-2.57-.18,.18-.14,.13c-1.51,1.4-8.2,7.38-18.81,13.38-12.14,6.84-29.42,13.68-49.98,13.68,0,11.51,8.3,20.66,18.71,22.66v45.4c0,20.86,16.91,37.78,37.77,37.78h12.64s3.05-.01,3.05-.01v-26.63c15.64-1.27,27.98-14.39,27.98-30.34v-3.64h-3.64c-.87,0-1.73,.04-2.57,.12,3.9-5.11,6.21-11.49,6.21-18.41v-3.64h-3.64c-.87,0-1.73,.05-2.57,.12,3.9-5.11,6.21-11.5,6.21-18.41v-3.62Z"/>
  <path class="cls-1" d="M116.52,43.02c-1.22,11.35-10.25,20.38-21.6,21.6,1.22-11.34,10.25-20.38,21.6-21.6Z"/>
  <path class="cls-1" d="M116.52,64.95c-1.22,11.35-10.25,20.38-21.6,21.6,1.22-11.35,10.25-20.38,21.6-21.6Z"/>
  <path class="cls-1" d="M116.52,86.87c-1.22,11.34-10.25,20.37-21.6,21.6,1.22-11.35,10.25-20.38,21.6-21.6Z"/>
  <path class="cls-1" d="M88.54,108.47c-11.34-1.23-20.37-10.26-21.59-21.6,11.34,1.22,20.37,10.25,21.59,21.6Z"/>
  <path class="cls-1" d="M88.54,86.54c-11.34-1.22-20.37-10.25-21.59-21.6,11.34,1.22,20.37,10.25,21.59,21.6Z"/>
  <path class="cls-1" d="M88.54,64.62c-11.34-1.22-20.37-10.25-21.59-21.6,11.34,1.22,20.37,10.26,21.59,21.6Z"/>
  <path class="cls-1" d="M91.74,47.39c-3.49-4.31-5.39-9.64-5.39-15.27s1.89-10.95,5.38-15.26h.01c7.16,8.87,7.16,21.65,0,30.52Z"/>
</svg>